<?xml version="1.0" standalone="no"?>
<!DOCTYPE svg PUBLIC "-//W3C//DTD SVG 1.0//EN" "http://www.w3.org/TR/2001/REC-SVG-20010904/DTD/svg10.dtd">
<svg xmlns="http://www.w3.org/2000/svg" xmlns:xlink="http://www.w3.org/1999/xlink" id="body_1" width="154" height="115">

<g transform="matrix(0.23469388 0 0 0.23469388 19.499998 -0)">
	<g>
        <path d="M326.493 205.161L326.493 163.5L284.83102 163.5L284.83102 123.5L326.493 123.5L326.493 81.838L346.493 81.838L346.493 0C 267.367 0 202.99301 64.374 202.99301 143.5C 202.99301 169.095 209.70502 193.869 222.49101 215.752L222.49101 215.752L196.61601 293.377L274.243 267.502C 296.123 280.289 320.898 287 346.493 287L346.493 287L346.493 205.16101L326.493 205.16101L326.493 205.161z" stroke="none" fill="#AAFFF5" fill-rule="nonzero" />
        <path d="M346.493 0L346.493 81.838L366.493 81.838L366.493 123.5L408.155 123.5L408.155 163.5L366.493 163.5L366.493 205.161L346.493 205.161L346.493 287C 425.61902 287 489.993 222.626 489.993 143.5C 489.993 64.37399 425.619 0 346.493 0z" stroke="none" fill="#00EED1" fill-rule="nonzero" />
        <path d="M142.463 240.869L176.189 207.143L63.919 94.873L49.801 107.861C 49.343 108.282 38.466 118.33 27.213999 132.317C 10.848 152.659 1.7919979 171.193 0.29799843 187.406C -3.97 233.73 39.012 309.404 109.801 380.194L109.801 380.194L195.79501 294.199L142.463 240.869z" stroke="none" fill="#00B6BD" fill-rule="nonzero" />
        <path d="M249.125 347.53L195.794 294.199L109.8 380.194C 141.666 412.059 175.634 439.225 208.033 458.755C 231.68 473.009 266.103 490 295.81 490C 298.117 490 300.397 489.897 302.588 489.696C 318.80002 488.20102 337.334 479.14502 357.677 462.77902C 371.663 451.527 381.711 440.65002 382.132 440.19202L382.132 440.19202L395.12 426.074L282.85 313.80402L249.125 347.53z" stroke="none" fill="#00969B" fill-rule="nonzero" />
        <path d="M326.493 123.5L284.832 123.5L284.832 163.5L326.493 163.5L326.493 205.161L366.493 205.161L366.493 163.5L408.155 163.5L408.155 123.5L366.493 123.5L366.493 81.838L326.493 81.838L326.493 123.5" stroke="none" fill="#00B6BD" fill-rule="nonzero" />
	</g>
	<g>
	</g>
	<g>
	</g>
	<g>
	</g>
	<g>
	</g>
	<g>
	</g>
	<g>
	</g>
	<g>
	</g>
	<g>
	</g>
	<g>
	</g>
	<g>
	</g>
	<g>
	</g>
	<g>
	</g>
	<g>
	</g>
	<g>
	</g>
	<g>
	</g>
</g>
</svg>