<?xml version="1.0" standalone="no"?>
<!DOCTYPE svg PUBLIC "-//W3C//DTD SVG 1.0//EN" "http://www.w3.org/TR/2001/REC-SVG-20010904/DTD/svg10.dtd">
<svg xmlns="http://www.w3.org/2000/svg" xmlns:xlink="http://www.w3.org/1999/xlink" id="body_1" width="154" height="115">

<g transform="matrix(0.292872 0 0 0.292872 19.5 -0)">
    <path d="M275.297 56.372C 275.297 37.301003 259.78198 21.786003 240.711 21.786003C 224.614 21.786003 210.715 32.711002 207.03 48.291C 204.638 58.053 189.899 61.026 185.761 48.291C 182.076 32.711 168.242 21.786001 152.08 21.786001C 133.009 21.786001 117.429 37.301003 117.429 56.372C 117.429 95.677 169.728 140.93 196.298 159.742C 222.998 140.929 275.297 95.806 275.297 56.372z" stroke="none" fill="#FFC10D" fill-rule="nonzero" />
    <path d="M240.711 0C 222.933 0 206.836 8.21 196.428 21.333C 186.02 8.21 169.923 0 152.145 0C 120.985 0 95.709 25.341 95.709 56.436C 95.709 119.596 186.60199 179.588 190.416 182.173C 194.036 184.436 199.014 184.306 202.311 182.173C 206.19 179.65201 297.018 119.595 297.018 56.436005C 297.082 25.341 271.87 0 240.711 0zM117.559 56.372C 117.559 37.301003 133.074 21.786003 152.20999 21.786003C 168.30699 21.786003 182.206 32.711002 185.89099 48.291C 189.96399 61.026 204.76799 58.053 207.15999 48.291C 210.84499 32.711 224.67899 21.786001 240.84099 21.786001C 259.912 21.786001 275.427 37.301003 275.427 56.372C 275.427 95.677 223.128 140.93 196.558 159.742C 169.858 140.929 117.559 95.806 117.559 56.372z" stroke="none" fill="#194F82" fill-rule="nonzero" />
    <path d="M368.064 270.158C 369.939 268.219 370.908 265.762 370.908 263.047L370.908 263.047L370.908 127.677C 370.908 117.721 362.763 109.576004 352.80698 109.576004C 342.85095 109.576004 334.70596 117.72101 334.70596 127.677L334.70596 127.677L334.70596 180.81601C 341.17096 187.798 345.24295 197.10701 345.24295 207.32101L345.24295 207.32101L345.24295 251.99202C 345.24295 258.00403 340.39496 262.91702 334.31796 262.91702C 328.30597 262.91702 323.39297 258.06903 323.39297 251.99202L323.39297 251.99202L323.39297 207.32101C 323.39297 197.94702 315.76498 190.31902 306.39096 190.31902C 297.01697 190.31902 289.38895 197.94702 289.38895 207.32101L289.38895 207.32101L289.38895 250.699C 289.38895 253.414 288.35495 256 286.54495 258.069L286.54495 258.069L247.75696 300.671C 240.71095 308.429 236.83195 318.44897 236.83195 328.921L236.83195 328.921L236.83195 360.468C 236.83195 366.09198 241.48695 370.74698 247.11096 370.74698L247.11096 370.74698L296.04797 370.74698C 301.67197 370.74698 306.32697 366.09198 306.32697 360.468L306.32697 360.468L306.32697 347.539C 306.32697 339.264 309.49496 331.377 315.18396 325.365L315.18396 325.365L368.064 270.158z" stroke="none" fill="#56ACE0" fill-rule="nonzero" />
    <path d="M352.808 87.79C 330.764 87.79 312.92102 105.697 312.92102 127.677L312.92102 127.677L312.92102 168.986C 310.85202 168.59799 308.59003 168.469 306.32703 168.469C 284.92902 168.469 267.53903 185.859 267.53903 207.25699L267.53903 207.25699L267.53903 246.36798L231.59604 285.93198C 220.92905 297.69797 214.98204 312.95398 214.98204 328.92197L214.98204 328.92197L214.98204 360.46896C 214.98204 378.18198 229.33405 392.53397 247.04704 392.53397L247.04704 392.53397L296.04904 392.53397C 313.76205 392.53397 328.11404 378.18198 328.11404 360.46896L328.11404 360.46896L328.11404 347.53998C 328.11404 344.88998 329.14804 342.36798 330.95804 340.429L330.95804 340.429L383.71002 285.09198C 389.39902 279.08 392.56702 271.258 392.56702 262.91797L392.56702 262.91797L392.56702 127.67796C 392.695 105.632 374.788 87.79 352.808 87.79zM306.456 360.469C 306.456 366.093 301.801 370.748 296.177 370.748L296.177 370.748L247.175 370.748C 241.55101 370.748 236.896 366.093 236.896 360.469L236.896 360.469L236.896 328.857C 236.896 318.32 240.775 308.29898 247.821 300.607L247.821 300.607L286.544 258.005C 288.419 256.001 289.388 253.35 289.388 250.63501L289.388 250.63501L289.388 207.25702C 289.388 197.88303 297.016 190.25502 306.39 190.25502C 315.76404 190.25502 323.39203 197.88303 323.39203 207.25702L323.39203 207.25702L323.39203 251.92802C 323.39203 257.94003 328.24002 262.85303 334.31702 262.85303C 340.329 262.85303 345.242 258.00504 345.242 251.92802L345.242 251.92802L345.242 207.25702C 345.242 196.97801 341.234 187.73402 334.70502 180.75201L334.70502 180.75201L334.70502 127.74202C 334.70502 117.78602 342.85 109.64102 352.80603 109.64102C 362.76205 109.64102 370.90704 117.786026 370.90704 127.74202L370.90704 127.74202L370.90704 263.112C 370.90704 265.763 369.87305 268.284 368.06305 270.223L368.06305 270.223L315.18204 325.56C 309.49304 331.572 306.32504 339.39398 306.32504 347.734L306.32504 347.734L306.32504 360.469L306.456 360.469z" stroke="none" fill="#194F82" fill-rule="nonzero" />
    <path d="M106.311 258.004C 104.436 256 103.466995 253.349 103.466995 250.634L103.466995 250.634L103.466995 207.25601C 103.466995 197.88202 95.839 190.25401 86.465 190.25401C 77.090996 190.25401 69.463 197.88202 69.463 207.25601L69.463 207.25601L69.463 251.92702C 69.463 257.93903 64.615 262.85202 58.538 262.85202C 52.461 262.85202 47.613 258.00302 47.613 251.92702L47.613 251.92702L47.613 207.25601C 47.613 196.977 51.621 187.73302 58.149998 180.751L58.149998 180.751L58.149998 127.74101C 58.149998 117.78501 50.004997 109.640015 40.048996 109.640015C 30.092995 109.640015 21.947996 117.78502 21.947996 127.74101L21.947996 127.74101L21.947996 263.11102C 21.947996 265.76202 22.981997 268.28302 24.791996 270.22202L24.791996 270.22202L77.54399 325.55902C 83.232994 331.571 86.40099 339.393 86.40099 347.73303L86.40099 347.73303L86.40099 360.66202C 86.40099 366.286 91.05599 370.941 96.67999 370.941L96.67999 370.941L145.68199 370.941C 151.30598 370.941 155.961 366.286 155.961 360.66202L155.961 360.66202L155.961 329.05C 155.961 318.513 152.082 308.49197 145.036 300.79898L145.036 300.79898L106.311 258.004z" stroke="none" fill="#FFFFFF" fill-rule="nonzero" />
    <path d="M161.196 285.931L125.317 246.432L125.317 207.32101C 125.317 185.92302 107.927 168.53302 86.52901 168.53302C 84.26601 168.53302 82.13301 168.66202 79.935005 169.05002L79.935005 169.05002L79.935005 127.74102C 79.935005 105.69702 62.028008 87.85402 40.048004 87.85402C 18.004 87.79 0.097 105.632 0.097 127.677L0.097 127.677L0.097 263.047C 0.097 271.322 3.2649999 279.20898 8.954 285.221L8.954 285.221L61.706 340.558C 63.581 342.497 64.55 344.954 64.55 347.669L64.55 347.669L64.55 360.598C 64.55 378.311 78.902 392.663 96.615005 392.663L96.615005 392.663L145.617 392.663C 163.33 392.663 177.682 378.311 177.682 360.598L177.682 360.598L177.682 328.986C 177.81 312.954 171.862 297.697 161.196 285.931zM155.959 360.469C 155.959 366.093 151.304 370.748 145.68 370.748L145.68 370.748L96.743 370.748C 91.118996 370.748 86.464 366.093 86.464 360.469L86.464 360.469L86.464 347.54C 86.464 339.265 83.296 331.37802 77.606995 325.366L77.606995 325.366L24.854996 270.029C 22.979996 268.09 22.010996 265.633 22.010996 262.918L22.010996 262.918L22.010996 127.67799C 22.010996 117.72199 30.155996 109.576996 40.111996 109.576996C 50.067993 109.576996 58.212997 117.722 58.212997 127.67799L58.212997 127.67799L58.212997 180.81699C 51.747997 187.79898 47.676 197.10799 47.676 207.32199L47.676 207.32199L47.676 251.993C 47.676 258.005 52.524 262.918 58.600998 262.918C 64.67799 262.918 69.526 258.07 69.526 251.993L69.526 251.993L69.526 207.32199C 69.526 197.948 77.154 190.31999 86.528 190.31999C 95.902 190.31999 103.53 197.948 103.53 207.32199L103.53 207.32199L103.53 250.69998C 103.53 253.41498 104.563995 256.00098 106.374 258.06998L106.374 258.06998L145.097 300.67197C 152.143 308.42996 156.022 318.44995 156.022 328.92197L156.022 328.92197L156.022 360.46896L155.959 360.46896z" stroke="none" fill="#194F82" fill-rule="nonzero" />
	<g>
	</g>
	<g>
	</g>
	<g>
	</g>
	<g>
	</g>
	<g>
	</g>
	<g>
	</g>
	<g>
	</g>
	<g>
	</g>
	<g>
	</g>
	<g>
	</g>
	<g>
	</g>
	<g>
	</g>
	<g>
	</g>
	<g>
	</g>
	<g>
	</g>
</g>
</svg>