<?xml version="1.0" standalone="no"?>
<!DOCTYPE svg PUBLIC "-//W3C//DTD SVG 1.0//EN" "http://www.w3.org/TR/2001/REC-SVG-20010904/DTD/svg10.dtd">
<svg xmlns="http://www.w3.org/2000/svg" xmlns:xlink="http://www.w3.org/1999/xlink" id="body_1" width="154" height="115">

<g transform="matrix(0.2659021 0 0 0.2659021 19.500004 -0)">
	<g>
		<g>
            <path d="M178.568 137.364C 178.568 158.13899 195.469 175.041 216.245 175.041C 237.021 175.041 253.922 158.14 253.922 137.364C 253.922 116.59 237.021 99.687 216.245 99.687C 195.469 99.687 178.568 116.59 178.568 137.364z" stroke="none" fill="none" />
            <path d="M225.096 370.187C 222.823 372.669 219.612 374.082 216.245 374.082C 212.879 374.082 209.668 372.669 207.394 370.187C 206.40399 369.105 189.091 350.142 167.05899 322.591L167.05899 322.591L67.44899 356.734L215.93098 407.803L365.03998 356.695L265.52798 322.46802C 243.449 350.084 226.088 369.103 225.096 370.187z" stroke="none" fill="none" />
            <path d="M95.855 144.392C 95.855 196.397 175.866 298.16 216.245 344.098C 256.624 298.147 336.637 196.362 336.637 144.392C 336.636 78.008 282.629 24 216.245 24C 149.861 24 95.855 78.008 95.855 144.392zM216.245 75.688C 250.254 75.688 277.922 103.356 277.922 137.365C 277.922 171.37401 250.254 199.042 216.245 199.042C 182.236 199.042 154.568 171.37401 154.568 137.365C 154.568 103.356 182.236 75.688 216.245 75.688z" stroke="none" fill="#73D0F4" fill-rule="nonzero" />
            <path d="M405.897 345.366L281.142 302.458C 284.77 297.689 288.445 292.777 292.129 287.737C 337.586 225.543 360.636 177.314 360.636 144.391C 360.636 64.773 295.862 0 216.245 0C 136.62799 0 71.855 64.773 71.855 144.392C 71.855 177.315 94.905 225.543 140.362 287.73798C 144.077 292.81897 147.782 297.77097 151.438 302.57498L151.438 302.57498L26.606 345.362C 21.758001 347.024 18.501001 351.582 18.498001 356.708C 18.495 361.833 21.749 366.39502 26.595001 368.062L26.595001 368.062L212.023 431.838C 213.288 432.272 214.607 432.49002 215.92499 432.49002C 217.23999 432.49002 218.55598 432.27402 219.81699 431.842L219.81699 431.842L405.886 368.066C 410.73398 366.405 413.991 361.846 413.994 356.721C 413.996 351.595 410.743 347.033 405.897 345.366zM336.636 144.392C 336.636 196.362 256.623 298.147 216.24399 344.098C 175.86499 298.16 95.85399 196.39699 95.85399 144.392C 95.855 78.008 149.861 24 216.245 24C 282.629 24 336.636 78.008 336.636 144.392zM215.932 407.803L67.449 356.733L167.05899 322.59C 189.09099 350.141 206.40399 369.104 207.39398 370.186C 209.66798 372.668 212.87798 374.081 216.24498 374.081C 219.61098 374.081 222.82198 372.668 225.09598 370.186C 226.08798 369.102 243.44998 350.083 265.52997 322.467L265.52997 322.467L365.04196 356.694L215.932 407.803z" stroke="none" fill="#3D6889" fill-rule="nonzero" />
            <path d="M216.245 199.041C 250.254 199.041 277.922 171.373 277.922 137.364C 277.922 103.354996 250.254 75.687 216.245 75.687C 182.236 75.687 154.568 103.354996 154.568 137.364C 154.568 171.373 182.236 199.041 216.245 199.041zM253.922 137.364C 253.922 158.13899 237.021 175.041 216.245 175.041C 195.469 175.041 178.568 158.14 178.568 137.364C 178.568 116.59 195.469 99.687 216.245 99.687C 237.021 99.687 253.922 116.59 253.922 137.364z" stroke="none" fill="#3D6889" fill-rule="nonzero" />
		</g>
	</g>
	<g>
	</g>
	<g>
	</g>
	<g>
	</g>
	<g>
	</g>
	<g>
	</g>
	<g>
	</g>
	<g>
	</g>
	<g>
	</g>
	<g>
	</g>
	<g>
	</g>
	<g>
	</g>
	<g>
	</g>
	<g>
	</g>
	<g>
	</g>
	<g>
	</g>
</g>
</svg>