<?xml version="1.0" standalone="no"?>
<!DOCTYPE svg PUBLIC "-//W3C//DTD SVG 1.0//EN" "http://www.w3.org/TR/2001/REC-SVG-20010904/DTD/svg10.dtd">
<svg xmlns="http://www.w3.org/2000/svg" xmlns:xlink="http://www.w3.org/1999/xlink" id="body_1" width="154" height="115">

<g transform="matrix(0.38655466 0 0 0.38655466 19.499998 -0)">
	<g>
		<g>
			<g>
                <path d="M220.405 28.67L220.405 167.55L205.305 167.55L195.385 145.12C 193.855 141.65999 190.47499 139.37999 186.69499 139.25C 182.915 139.09 179.39499 141.15 177.61499 144.49L177.61499 144.49L160.33499 177.01001L156.98499 171.96C 154.98499 168.96 151.50499 167.27 147.91498 167.58C 144.31497 167.89 141.17497 170.13 139.71498 173.43001L139.71498 173.43001L136.21498 181.32L120.18498 145.12001C 118.60498 141.55 115.06498 139.24 111.15498 139.24C 107.24498 139.24 103.694984 141.55 102.11498 145.12001L102.11498 145.12001L92.18498 167.55002L77.094986 167.55002L77.094986 28.67C 77.094986 23.9 80.97498 20.02 85.74499 20.02L85.74499 20.02L211.75499 20.02C 216.525 20.02 220.405 23.9 220.405 28.67zM180.865 85.74C 180.865 80.28 176.445 75.86 170.985 75.86L170.985 75.86L158.635 75.86L158.635 63.5C 158.635 58.05 154.205 53.62 148.745 53.62C 143.28499 53.62 138.86499 58.05 138.86499 63.5L138.86499 63.5L138.86499 75.86L126.51499 75.86C 121.05499 75.86 116.62499 80.28 116.62499 85.74C 116.62499 91.2 121.05499 95.63 126.51499 95.63L126.51499 95.63L138.86499 95.63L138.86499 107.979996C 138.86499 113.439995 143.28499 117.85999 148.745 117.85999C 154.205 117.85999 158.635 113.439995 158.635 107.979996L158.635 107.979996L158.635 95.63L170.985 95.63C 176.445 95.63 180.865 91.2 180.865 85.74z" stroke="none" fill="#00C08D" fill-rule="nonzero" />
                <path d="M220.405 248.33L220.405 268.83002C 220.405 273.6 216.525 277.48 211.755 277.48L211.755 277.48L85.745 277.48C 80.975006 277.48 77.095 273.6 77.095 268.83002L77.095 268.83002L77.095 248.33002L220.405 248.33002L220.405 248.33zM166.785 263.15C 166.785 257.69 162.365 253.26999 156.905 253.26999L156.905 253.26999L140.595 253.26999C 135.135 253.26999 130.715 257.69 130.715 263.15C 130.715 268.61 135.135 273.04 140.595 273.04L140.595 273.04L156.905 273.04C 162.365 273.04 166.785 268.61 166.785 263.15z" stroke="none" fill="#CDD9DD" fill-rule="nonzero" />
                <path d="M220.405 187.31L220.405 228.56L77.095 228.56L77.095 187.31L98.625 187.31C 102.535 187.31 106.075 185.01 107.655 181.43L107.655 181.43L111.155 173.54L127.175 209.73999C 128.765 213.31 132.30501 215.62 136.215 215.62C 140.12498 215.62 143.675 213.31 145.25499 209.73999L145.25499 209.73999L150.48499 197.90999L153.04498 201.76999C 154.97498 204.66998 158.28499 206.34 161.76498 206.16998C 165.24498 205.99997 168.37498 204.00998 170.00499 200.93999L170.00499 200.93999L185.53499 171.70999L189.83499 181.43C 191.42499 185.01 194.965 187.31 198.87498 187.31L198.87498 187.31L220.405 187.31z" stroke="none" fill="#FF4855" fill-rule="nonzero" />
                <path d="M240.175 28.67L240.175 268.83002C 240.175 284.50003 227.425 297.25003 211.755 297.25003L211.755 297.25003L85.745 297.25003C 70.075005 297.25003 57.325005 284.50003 57.325005 268.83002L57.325005 268.83002L57.325005 28.67C 57.325005 13 70.075005 0.25 85.745 0.25L85.745 0.25L211.755 0.25C 227.425 0.25 240.175 13 240.175 28.67zM220.405 268.83L220.405 248.32999L77.095 248.32999L77.095 268.83C 77.095 273.59998 80.975 277.47998 85.745 277.47998L85.745 277.47998L211.755 277.47998C 216.525 277.48 220.405 273.6 220.405 268.83zM220.405 228.56L220.405 187.31L198.875 187.31C 194.965 187.31 191.425 185.01 189.835 181.43L189.835 181.43L185.535 171.70999L170.005 200.93999C 168.375 204.01 165.24501 205.99998 161.765 206.16998C 158.28499 206.33998 154.975 204.66998 153.045 201.76999L153.045 201.76999L150.485 197.90999L145.255 209.73999C 143.675 213.31 140.125 215.62 136.21501 215.62C 132.30502 215.62 128.76501 213.31 127.17501 209.73999L127.17501 209.73999L111.155014 173.54L107.655014 181.43C 106.07501 185.01 102.53501 187.31 98.625015 187.31L98.625015 187.31L77.09502 187.31L77.09502 228.56L220.405 228.56zM220.405 167.55L220.405 28.67C 220.405 23.9 216.525 20.02 211.755 20.02L211.755 20.02L85.745 20.02C 80.975006 20.02 77.095 23.900002 77.095 28.67L77.095 28.67L77.095 167.55L92.185 167.55L102.115 145.12C 103.695 141.54999 107.244995 139.23999 111.155 139.23999C 115.065 139.23999 118.604996 141.54999 120.185 145.12L120.185 145.12L136.215 181.31999L139.715 173.43C 141.175 170.12999 144.315 167.89 147.915 167.57999C 151.50499 167.26999 154.985 168.95999 156.98499 171.95999L156.98499 171.95999L160.33499 177.01L177.61499 144.48999C 179.39499 141.15 182.915 139.09 186.69499 139.24998C 190.47499 139.37999 193.855 141.65999 195.385 145.11998L195.385 145.11998L205.305 167.54999L220.405 167.54999z" stroke="none" fill="#000000" fill-rule="nonzero" />
                <path d="M170.985 75.86C 176.445 75.86 180.865 80.28 180.865 85.74C 180.865 91.2 176.445 95.63 170.985 95.63L170.985 95.63L158.635 95.63L158.635 107.979996C 158.635 113.439995 154.205 117.85999 148.745 117.85999C 143.28499 117.85999 138.86499 113.439995 138.86499 107.979996L138.86499 107.979996L138.86499 95.63L126.51499 95.63C 121.05499 95.63 116.62499 91.2 116.62499 85.74C 116.62499 80.28 121.05499 75.86 126.51499 75.86L126.51499 75.86L138.86499 75.86L138.86499 63.5C 138.86499 58.05 143.28499 53.62 148.745 53.62C 154.205 53.62 158.635 58.05 158.635 63.5L158.635 63.5L158.635 75.86L170.985 75.86z" stroke="none" fill="#000000" fill-rule="nonzero" />
                <path d="M156.905 253.27C 162.365 253.27 166.785 257.69 166.785 263.15C 166.785 268.61 162.365 273.04 156.905 273.04L156.905 273.04L140.595 273.04C 135.135 273.04 130.715 268.61002 130.715 263.15C 130.715 257.68997 135.135 253.26999 140.595 253.26999L140.595 253.26999L156.905 253.26999L156.905 253.27z" stroke="none" fill="#000000" fill-rule="nonzero" />
			</g>
			<g>
			</g>
		</g>
	</g>
	<g>
	</g>
	<g>
	</g>
	<g>
	</g>
	<g>
	</g>
	<g>
	</g>
	<g>
	</g>
	<g>
	</g>
	<g>
	</g>
	<g>
	</g>
	<g>
	</g>
	<g>
	</g>
	<g>
	</g>
	<g>
	</g>
	<g>
	</g>
	<g>
	</g>
</g>
</svg>