<?xml version="1.0" standalone="no"?>
<!DOCTYPE svg PUBLIC "-//W3C//DTD SVG 20010904//EN"
 "http://www.w3.org/TR/2001/REC-SVG-20010904/DTD/svg10.dtd">
<svg version="1.0" xmlns="http://www.w3.org/2000/svg"
 width="32.000000pt" height="32.000000pt" viewBox="0 0 32.000000 32.000000"
 preserveAspectRatio="xMidYMid meet">

<g transform="translate(0.000000,32.000000) scale(0.100000,-0.100000)"
fill="#000000" stroke="none">
<path d="M125 298 c-45 -24 -60 -83 -31 -123 13 -18 11 -23 -18 -51 -38 -37
-63 -124 -36 -124 6 0 10 11 10 25 0 58 55 115 110 115 55 0 110 -57 110 -115
0 -14 5 -25 10 -25 29 0 -9 110 -46 135 -23 15 -23 17 -9 38 30 42 18 100 -26
122 -33 18 -47 18 -74 3z m73 -24 c45 -31 19 -114 -36 -114 -36 0 -62 27 -62
66 0 34 28 64 60 64 9 0 26 -7 38 -16z"/>
</g>
</svg>
