<?xml version="1.0" standalone="no"?>
<!DOCTYPE svg PUBLIC "-//W3C//DTD SVG 20010904//EN"
 "http://www.w3.org/TR/2001/REC-SVG-20010904/DTD/svg10.dtd">
<svg version="1.0" xmlns="http://www.w3.org/2000/svg"
 width="24.000000pt" height="24.000000pt" viewBox="0 0 24.000000 24.000000"
 preserveAspectRatio="xMidYMid meet">

<g transform="translate(0.000000,24.000000) scale(0.100000,-0.100000)"
fill="#000000" stroke="none">
<path d="M27 204 c-4 -4 -7 -50 -7 -102 0 -91 1 -94 17 -73 15 17 31 21 98 23
l80 3 0 75 0 75 -90 3 c-50 1 -94 0 -98 -4z m173 -73 l0 -59 -80 -4 -80 -3 0
63 0 62 80 0 80 0 0 -59z"/>
<path d="M60 147 c0 -7 6 -19 13 -26 10 -11 10 -13 0 -7 -7 4 -13 2 -13 -3 0
-6 7 -11 15 -11 18 0 20 21 3 39 -10 11 -10 13 0 7 6 -4 12 -2 12 3 0 6 -7 11
-15 11 -8 0 -15 -6 -15 -13z"/>
<path d="M104 146 c-8 -22 3 -49 19 -43 6 2 12 14 12 27 0 27 -22 39 -31 16z
m26 -16 c0 -11 -4 -20 -10 -20 -5 0 -10 9 -10 20 0 11 5 20 10 20 6 0 10 -9
10 -20z"/>
<path d="M150 145 c0 -8 5 -15 10 -15 6 0 10 -5 10 -11 0 -5 -4 -7 -10 -4 -5
3 -10 1 -10 -4 0 -6 6 -11 14 -11 10 0 14 10 14 30 -1 30 -28 45 -28 15z"/>
</g>
</svg>
